<?xml version="1.0" encoding="iso-8859-1"?>
<!-- Generator: Adobe Illustrator 19.0.0, SVG Export Plug-In . SVG Version: 6.00 Build 0)  -->
<svg version="1.1" id="Capa_1" xmlns="http://www.w3.org/2000/svg" xmlns:xlink="http://www.w3.org/1999/xlink" x="0px" y="0px"
	 viewBox="0 0 472.106 472.106" style="enable-background:new 0 0 472.106 472.106;" xml:space="preserve">
<path style="fill:#FFD33F;" d="M160.057,424.106h144l24,48h-192L160.057,424.106z"/>
<circle style="fill:#EC4B97;" cx="232.057" cy="224.106" r="216"/>
<path style="fill:#9E1566;" d="M349.377,42.786c64.818,100.116,36.204,233.822-63.911,298.64
	c-71.413,46.235-163.316,46.235-234.729,0c64.729,100.205,198.435,128.964,298.64,64.235s128.964-198.435,64.235-298.64
	C396.996,81.298,375.1,59.402,349.377,42.786z"/>
<circle style="fill:#FFD33F;" cx="232.057" cy="224.106" r="184"/>
<g>
	<path style="fill:#393856;" d="M457.265,128.106c-3.119,0.001-5.954-1.81-7.264-4.64c-17.555-37.867-44.638-70.529-78.6-94.792
		c-3.594-2.571-4.423-7.57-1.852-11.164s7.57-4.423,11.164-1.852c36.208,25.883,65.086,60.713,83.816,101.088
		c1.852,4.01,0.105,8.762-3.904,10.616C459.574,127.855,458.426,128.109,457.265,128.106L457.265,128.106z"/>
	<path style="fill:#393856;" d="M443.121,48.106c-2.313,0-4.513-1-6.032-2.744c-9.79-11.209-20.473-21.606-31.944-31.088
		c-3.465-2.742-4.051-7.773-1.309-11.238s7.773-4.051,11.238-1.309c0.086,0.068,0.172,0.139,0.255,0.211
		c12.151,10.03,23.46,21.037,33.816,32.912c2.903,3.331,2.556,8.384-0.775,11.287C446.915,47.405,445.051,48.104,443.121,48.106z"/>
	<path style="fill:#393856;" d="M464.057,75.306c-2.661,0.004-5.15-1.315-6.64-3.52l-2.112-3.08
		c-2.497-3.645-1.567-8.624,2.078-11.121c3.596-2.464,8.502-1.595,11.034,1.953l2.264,3.296c2.47,3.663,1.502,8.636-2.161,11.105
		C467.201,74.828,465.647,75.304,464.057,75.306z"/>
</g>
<path style="fill:#F2624C;" d="M302.457,54.09c-45.098-18.645-95.75-18.645-140.848,0l70.448,170.016L302.457,54.09z"/>
<path style="fill:#FAA41B;" d="M161.657,54.09c-45.067,18.733-80.883,54.549-99.616,99.616l170.016,70.4L161.657,54.09z"/>
<path style="fill:#FFD33F;" d="M62.041,153.706c-18.645,45.095-18.645,95.745,0,140.84l170.016-70.44L62.041,153.706z"/>
<path style="fill:#EE2849;" d="M0.057,168.106v112l88-56L0.057,168.106z"/>
<path style="fill:#FFD33F;" d="M402.073,153.706l-170.016,70.4l170.016,70.4c18.645-45.098,18.645-95.75,0-140.848V153.706z"/>
<path style="fill:#EAB42D;" d="M402.073,153.706l-18.016,7.448c-0.136,39.783-11.314,78.747-32.288,112.552l50.304,20.8
	c18.645-45.098,18.645-95.75,0-140.848V153.706z"/>
<path style="fill:#FAA41B;" d="M402.073,153.706c-18.733-45.067-54.549-80.883-99.616-99.616l-70.4,170.016L402.073,153.706z"/>
<path style="fill:#F08015;" d="M402.073,153.706c-5.976-14.214-13.72-27.619-23.048-39.896c3.336,15.206,5.023,30.728,5.032,46.296
	v1.048L402.073,153.706z"/>
<path style="fill:#FAA41B;" d="M161.657,394.122c45.098,18.645,95.75,18.645,140.848,0l-70.448-170.016L161.657,394.122z"/>
<path style="fill:#F08015;" d="M169.105,376.106l-7.448,18.016c45.098,18.645,95.75,18.645,140.848,0l-20.8-50.304
	C247.886,364.8,208.904,375.978,169.105,376.106L169.105,376.106z"/>
<path style="fill:#F2624C;" d="M302.457,394.122c45.067-18.733,80.883-54.549,99.616-99.616l-170.016-70.4L302.457,394.122z"/>
<path style="fill:#D44A43;" d="M351.769,273.706c-17.644,28.471-41.641,52.468-70.112,70.112l20.8,50.304
	c45.067-18.733,80.883-54.549,99.616-99.616L351.769,273.706z"/>
<path style="fill:#F2624C;" d="M62.041,294.506c18.733,45.067,54.549,80.883,99.616,99.616l70.4-170.016L62.041,294.506z"/>
<path style="fill:#D44A43;" d="M168.057,376.106c-15.576-0.007-31.106-1.694-46.32-5.032c12.285,9.33,25.697,17.074,39.92,23.048
	l7.448-18.016C168.753,376.106,168.409,376.106,168.057,376.106L168.057,376.106z"/>
<g>
</g>
<g>
</g>
<g>
</g>
<g>
</g>
<g>
</g>
<g>
</g>
<g>
</g>
<g>
</g>
<g>
</g>
<g>
</g>
<g>
</g>
<g>
</g>
<g>
</g>
<g>
</g>
<g>
</g>
</svg>
